<svg id="_001---Gardening" data-name="001---Gardening" xmlns="http://www.w3.org/2000/svg" width="66.995" height="67" viewBox="0 0 66.995 67">
  <path id="Shape" d="M28.181,18.361c3.517,2.356,8.439,2.233,12.526,1.069a21.768,21.768,0,0,1,1.34,5.406l.038,2.62H26.467a2.233,2.233,0,0,0-2.214,2.521l1.016,7.817a2.233,2.233,0,0,0,2.183,1.945l3.21,24.856a2.239,2.239,0,0,0,2.215,1.944H53.556a2.239,2.239,0,0,0,2.215-1.947l3.21-24.853A2.233,2.233,0,0,0,61.165,37.8c1.138-8.754,1.016-7.7,1.016-7.817a2.233,2.233,0,0,0-2.214-2.525H44.333l.054-2.615a20.911,20.911,0,0,1,1.34-5.409c4.085,1.168,9.008,1.286,12.525-1.07,5.36-3.588,6.142-11.85,6.176-12.2a1.016,1.016,0,0,0-.016-.2.967.967,0,0,0-.165-.508V5.442c-.011-.017-.029-.025-.04-.04a.931.931,0,0,0-.371-.312.961.961,0,0,0-.141-.078c-.322-.112-7.951-2.786-13.333.817C45.523,9.067,44.416,16.1,44.221,17.7a6.414,6.414,0,0,0-1.005,2.087,6.535,6.535,0,0,0-1.005-2.1c-.2-1.61-1.308-8.625-6.142-11.86-5.377-3.6-13.006-.93-13.329-.819a1,1,0,0,0-.141.078.941.941,0,0,0-.371.312c-.011.016-.029.023-.04.04a.994.994,0,0,0-.169.517,1.015,1.015,0,0,0-.02.2c.036.351.822,8.613,6.181,12.2Zm-3.5-9.91L38.448,17.67c-7.584,1.448-11.93-1.563-13.768-9.219ZM53.556,64.306H32.877L29.7,39.739H56.728Zm5.395-26.8H27.483l-1.016-7.817h33.5ZM47.993,17.667,61.76,8.449C59.92,16.138,55.551,19.1,47.993,17.667ZM60.62,6.525,46.857,15.739C48.688,8.137,52.976,5.074,60.62,6.525ZM34.832,7.691c2.827,1.9,4.152,5.583,4.747,8.056L25.809,6.521C28.208,6.062,32,5.792,34.832,7.691Z" transform="translate(2.567 0.461)" fill="#fff"/>
  <path id="Shape-2" data-name="Shape" d="M31.35,29H29.117a1.117,1.117,0,1,0,0,2.233H31.35a1.117,1.117,0,0,0,0-2.233Z" transform="translate(3.267 3.383)" fill="#fff"/>
  <path id="Shape-3" data-name="Shape" d="M35.117,29a1.117,1.117,0,0,0,0,2.233h7.817a1.117,1.117,0,1,0,0-2.233Z" transform="translate(3.967 3.383)" fill="#fff"/>
  <path id="Shape-4" data-name="Shape" d="M12.283,67c6.6,0,12.283-17.333,12.283-25.843,0-7.865-4.455-10.18-8.933-10.8V25.654a5.558,5.558,0,0,0,2.233-4.438V5.583a5.583,5.583,0,0,0-11.167,0V21.217a5.558,5.558,0,0,0,2.233,4.438V30.36C4.455,30.977,0,33.292,0,41.157,0,49.667,5.686,67,12.283,67ZM14.3,32.469c-.586,5.424-1.459,8.1-2.018,8.752-.558-.655-1.432-3.329-2.018-8.752A23.643,23.643,0,0,1,14.3,32.469ZM8.933,5.583a3.35,3.35,0,1,1,6.7,0V21.217a3.35,3.35,0,0,1-6.7,0Zm2.233,21.1a5.591,5.591,0,0,0,2.233,0v3.484c-.772-.028-1.442-.029-2.233,0ZM8.055,32.8c1.161,10.749,3.3,10.749,4.229,10.749s3.067,0,4.229-10.749c4.076.941,5.821,3.545,5.821,8.356,0,8.548-5.807,23.61-10.05,23.61S2.233,49.705,2.233,41.157C2.233,36.346,3.979,33.742,8.055,32.8Z" transform="translate(0 0)" fill="#fff"/>
  <ellipse id="Oval" cx="1" cy="1.5" rx="1" ry="1.5" transform="translate(11 4)" fill="#fff"/>
</svg>
