<svg xmlns="http://www.w3.org/2000/svg" width="60.13" height="60.131" viewBox="0 0 60.13 60.131">
  <g id="blueprint" transform="translate(-0.002)">
    <g id="Page-1_5_" transform="translate(0.002 0)">
      <g id="_x30_06---Draw-Blueprint" transform="translate(0 0)">
        <path id="Shape_17_" d="M60.132,5.971a3.04,3.04,0,0,0-.9-2.175L56.336.9A3.04,3.04,0,0,0,54.172,0h-.01a3.012,3.012,0,0,0-2.148.9L38.886,14.03H13.03V3.007A3.007,3.007,0,0,0,10.024,0h-2A8.026,8.026,0,0,0,0,8.017V52.364A8.236,8.236,0,0,0,8.31,60.13H57.126a3.006,3.006,0,0,0,3.006-3.006V17.037a3.007,3.007,0,0,0-3.006-3.007H53.317L59.23,8.118a3.021,3.021,0,0,0,.9-2.147ZM35.86,25.054a.668.668,0,0,1-.573-.2.692.692,0,0,1-.2-.565l.38-3.407a1.871,1.871,0,0,1,.06-.21l3.948,3.948c-.065.014-.124.046-.192.054Zm5.25-1.637-4.386-4.387L47.648,8.108l4.383,4.382ZM49.061,6.689,50.547,5.2l4.381,4.382-1.485,1.486ZM2.006,8.017A6.019,6.019,0,0,1,8.019,2h2a1,1,0,0,1,1,1V43.093a1,1,0,0,1-1,1h-2a8,8,0,0,0-6.013,2.72Zm55.119,8.017a1,1,0,0,1,1,1V57.124a1,1,0,0,1-1,1H8.31a6.214,6.214,0,0,1-6.3-5.793v-.221A6.019,6.019,0,0,1,8.019,46.1h2a3.006,3.006,0,0,0,3.006-3.006V16.035H36.882l-2.276,2.276a3.871,3.871,0,0,0-1.131,2.339l-.38,3.414a2.669,2.669,0,0,0,.093.99H16.037a1,1,0,1,0,0,2h3.007V54.117a1,1,0,1,0,2,0V40.087H32.071V48.1H25.056a1,1,0,0,0,0,2H45.1a2,2,0,0,0,2-2V33.072a1,1,0,1,0-2,0v5.011H21.048V27.059h14.74a2.582,2.582,0,0,0,.293-.016l3.424-.39a3.924,3.924,0,0,0,2.305-1.1l9.509-9.521h5.808ZM45.1,40.087V48.1H34.076V40.087ZM57.817,6.7,56.346,8.169,51.964,3.787l1.472-1.472A1.028,1.028,0,0,1,54.169,2a1.049,1.049,0,0,1,.747.315l2.9,2.892a1.052,1.052,0,0,1,.314.753,1.026,1.026,0,0,1-.311.733Z" transform="translate(-0.002 0)" fill="#fff"/>
      </g>
    </g>
  </g>
</svg>
