<svg xmlns="http://www.w3.org/2000/svg" width="71" height="60.131" viewBox="0 0 71 60.131">
  <g id="cctv-camera" transform="translate(-16.74 -35.552)">
    <path id="Path_388" data-name="Path 388" d="M160.645,173.078a2.481,2.481,0,1,0,2.481,2.481A2.483,2.483,0,0,0,160.645,173.078Zm0,3.2a.717.717,0,1,1,.717-.717A.718.718,0,0,1,160.645,176.275Z" transform="translate(-96.065 -93.418)" fill="#fff"/>
    <path id="Path_389" data-name="Path 389" d="M86.858,68.472H82.5a4.44,4.44,0,0,0-4.435,4.435v4.012h-9.3L67.67,73.9l1.764-5.128,1.626-.586.05-.02c3.449-1.489,5.389-5.131,5.506-9.634l1.918-.7a4.2,4.2,0,0,0,2.557-5.286c-.1-.316-.213-.632-.325-.94C76.6,40.161,68.9,33.866,61.607,35.946l-.06.019L25.489,49.108,19.9,50.949l-.026.009a4.431,4.431,0,0,0-2.984,3.167c-.7,2.879,1.082,7.34,5.288,13.26.81,1.14,1.636,2.228,2.414,3.213a18.378,18.378,0,0,0,5.664,7.563,9.713,9.713,0,0,0,5.763,2.151,17.506,17.506,0,0,0,3.175-.639L52.2,74.982l4.711,2.832,2.407,6.612a5.719,5.719,0,0,0,8.542,2.809h10.2v4.012A4.44,4.44,0,0,0,82.5,95.683h4.36a.882.882,0,0,0,.882-.882V69.354a.882.882,0,0,0-.882-.882ZM62.121,37.634c6.34-1.782,13.164,4.07,16.988,14.578.106.29.209.588.306.885a2.447,2.447,0,0,1-1.484,3.079L43.5,68.707a4.105,4.105,0,0,1-5.191-2.255c-.561-1.326-2.489-5.783-3.773-7.433-3.232-4.154-6.772-6.727-10.318-7.571ZM37.8,70.887c-.2,1.525-.787,2.572-1.615,2.873-1.672.609-4.669-1.83-6.3-6.3s-.9-8.267.773-8.875a1.593,1.593,0,0,1,.548-.092,2.351,2.351,0,0,1,.7.118q.625.7,1.239,1.493a40.63,40.63,0,0,1,3.541,7.037A5.847,5.847,0,0,0,37.841,68.9,10.04,10.04,0,0,1,37.8,70.887ZM23.289,59.022a17.2,17.2,0,0,0-.126,6.692C20.321,61.6,17.968,57.158,18.6,54.54a2.427,2.427,0,0,1,.825-1.349,9.551,9.551,0,0,1,6.583.759,9.94,9.94,0,0,0-2.722,5.071Zm18.543,13.9c-.634,2.714-2.062,4.6-4.022,5.315s-4.267.186-6.5-1.486a17.03,17.03,0,0,1-5.484-7.814c-2.133-5.86-1.271-11.716,1.825-14.07a18.684,18.684,0,0,1,2.564,2.01c-.055.017-.109.032-.163.052-2.912,1.06-3.714,5.951-1.827,11.136,1.646,4.522,4.715,7.557,7.4,7.557a3.353,3.353,0,0,0,1.153-.2c1.491-.543,2.471-2.071,2.761-4.3.039-.3.064-.618.077-.938a5.878,5.878,0,0,0,2.47.545h.057A13.43,13.43,0,0,1,41.831,72.92Zm.354,3.8a11.3,11.3,0,0,0,1.364-3.4,15.371,15.371,0,0,0,.378-2.9c.06-.02.12-.039.18-.061l30.7-11.173a12.6,12.6,0,0,1-.282,1.886,7.5,7.5,0,0,1-4.089,5.459Zm23.868,9.471a3.962,3.962,0,0,1-5.074-2.366l-2.514-6.906a.882.882,0,0,0-.374-.454l-3.747-2.253L67.3,69.54l-1.4,4.082a.881.881,0,0,0,.005.589l2.514,6.906A3.963,3.963,0,0,1,66.053,86.189Zm12.01-.717h-8.5a5.714,5.714,0,0,0,.51-4.959l-.666-1.829h8.653Zm7.913,8.447H82.5a2.674,2.674,0,0,1-2.671-2.671V72.907A2.674,2.674,0,0,1,82.5,70.236h3.478Z" transform="translate(0 0)" fill="#fff"/>
    <path id="Path_390" data-name="Path 390" d="M65.651,123.063c-.683-1.876-2.117-2.956-3.336-2.512s-1.624,2.193-.941,4.069a4.916,4.916,0,0,0,1.256,1.955,2.3,2.3,0,0,0,1.515.656,1.645,1.645,0,0,0,.565-.1c1.219-.444,1.624-2.193.941-4.069h0Zm-1.55,2.4a3.148,3.148,0,0,1-1.177-3.235,3.148,3.148,0,0,1,1.177,3.235Z" transform="translate(-30.094 -57.67)" fill="#fff"/>
  </g>
</svg>
