<svg xmlns="http://www.w3.org/2000/svg" width="60.194" height="67" viewBox="0 0 60.194 67">
  <g id="champagne-glass" transform="translate(-0.001)">
    <path id="Path_135" data-name="Path 135" d="M27.563,40.186,14.88,37.712a1.313,1.313,0,0,0-1.388.631A64.475,64.475,0,0,0,6.876,56.457a31.972,31.972,0,0,0-.6,6.764A23.994,23.994,0,0,0,6.884,68.3q.163.705.38,1.4c1.082,3.455,2.941,5.816,5.306,6.791L9.831,91.248,3.931,90.1a3.251,3.251,0,0,0-3.6,1.953,4.039,4.039,0,0,0-.2.74,5.836,5.836,0,0,0-.116.721,3.222,3.222,0,0,0,2.6,3.378L17,99.7a3.28,3.28,0,0,0,3.286-1.36,3.079,3.079,0,0,0,.42-.9,5.625,5.625,0,0,0,.22-1.222,3.222,3.222,0,0,0-2.6-3.311l-5.912-1.154,2.74-14.768c2.416-.022,4.876-1.358,7.079-3.865.18-.2.353-.415.523-.628a25.109,25.109,0,0,0,3.965-7.409,32.916,32.916,0,0,0,1.217-4.516,64.472,64.472,0,0,0,.679-19.272,1.315,1.315,0,0,0-1.049-1.107ZM18.2,95.735a.7.7,0,0,1,.082.5,2.277,2.277,0,0,1-.11.485.6.6,0,0,1-.67.4L3.109,94.311a.6.6,0,0,1-.409-.3.93.93,0,0,1-.01-.65.88.88,0,0,1,.224-.537.6.6,0,0,1,.514-.145l14.391,2.808a.593.593,0,0,1,.379.251Zm-2.875-55.26,10.793,2.106a63.458,63.458,0,0,1-.76,17.481c-.121.618-.261,1.226-.415,1.823H8.9a30.045,30.045,0,0,1,.552-4.926,63.609,63.609,0,0,1,5.868-16.484Zm7.686,26.693a19.6,19.6,0,0,1-2.438,3.847A9,9,0,0,1,16.237,74.2a4.2,4.2,0,0,1-2.2.015,5.54,5.54,0,0,1-3.122-2.682,14.768,14.768,0,0,1-1.763-5.382c-.081-.542-.141-1.089-.182-1.636H24.131a25.86,25.86,0,0,1-1.123,2.655Zm0,0" transform="translate(0 -32.756)" fill="#fff"/>
    <path id="Path_136" data-name="Path 136" d="M168.211,102.864c.041,0,.081.006.121.006a1.314,1.314,0,0,0,1.307-1.195,63.931,63.931,0,0,0,.2-8.3,1.314,1.314,0,0,0-2.626.1,61.114,61.114,0,0,1-.2,7.957,1.314,1.314,0,0,0,1.189,1.428Zm0,0" transform="translate(-145.16 -80.059)" fill="#fff"/>
    <path id="Path_137" data-name="Path 137" d="M266.045,93.112a4.926,4.926,0,0,0-.43-1.4,3.133,3.133,0,0,0-.816-.967,3.235,3.235,0,0,0-2.624-.643l-5.906,1.152L253.387,76.48c5.065-2.105,7.544-10.494,5.685-20.023a64.494,64.494,0,0,0-6.616-18.114,1.315,1.315,0,0,0-1.388-.631l-12.684,2.475a1.315,1.315,0,0,0-1.049,1.107,64.49,64.49,0,0,0,.679,19.272c1.859,9.528,7.311,16.37,12.8,16.417l2.882,14.771-5.906,1.152a3.277,3.277,0,0,0-2.524,2.443,4.137,4.137,0,0,0,.172,2.2A3.222,3.222,0,0,0,249.11,99.7L263.5,96.891a3.251,3.251,0,0,0,2.545-3.779Zm-26.212-50.53,10.793-2.106a63.592,63.592,0,0,1,5.868,16.484c.067.343.127.685.181,1.026H240.232a64.614,64.614,0,0,1-.4-15.4Zm23.543,51.479a.589.589,0,0,1-.378.25l-14.39,2.808a.6.6,0,0,1-.513-.145.894.894,0,0,1-.225-.539,1.011,1.011,0,0,1-.009-.609.6.6,0,0,1,.428-.342l14.39-2.808a.605.605,0,0,1,.67.4A1.179,1.179,0,0,1,263.375,94.061ZM250.611,74.35a5.937,5.937,0,0,1-3.1-1.25,12.335,12.335,0,0,1-2.369-2.366,18.279,18.279,0,0,1-1.156-1.67,24.191,24.191,0,0,1-1.832-3.665,29.214,29.214,0,0,1-1.453-4.785h16.272a23.922,23.922,0,0,1-.493,7.174,15.6,15.6,0,0,1-.6,1.966c-.922,2.411-2.306,3.974-3.925,4.447A4.01,4.01,0,0,1,250.611,74.35Zm0,0" transform="translate(-205.908 -32.757)" fill="#fff"/>
    <path id="Path_138" data-name="Path 138" d="M220.49,1.314a1.314,1.314,0,1,0-2.627,0V5.583a1.314,1.314,0,1,0,2.627,0Zm0,0" transform="translate(-189.353)" fill="#fff"/>
    <path id="Path_139" data-name="Path 139" d="M175.166,7.03a1.314,1.314,0,0,0,2.246-1.364L175.793,3a1.314,1.314,0,1,0-2.246,1.364Zm0,0" transform="translate(-150.67 -2.058)" fill="#fff"/>
    <path id="Path_140" data-name="Path 140" d="M252.618,7.47a1.313,1.313,0,0,0,1.8-.441l1.619-2.666A1.314,1.314,0,0,0,253.8,3l-1.619,2.666A1.313,1.313,0,0,0,252.618,7.47Zm0,0" transform="translate(-219.011 -2.058)" fill="#fff"/>
    <path id="Path_141" data-name="Path 141" d="M334.207,113.316q.75,2.055,1.347,4.162c.156.555.242,1.139.777,1.461a1.314,1.314,0,0,0,1.946-1.466c-.172-.681-.377-1.357-.584-2.029q-.32-1.044-.679-2.075c-.118-.34-.225-.692-.367-1.023a1.311,1.311,0,0,0-.46-.562,1.313,1.313,0,0,0-1.981,1.531Zm0,0" transform="translate(-290.404 -96.957)" fill="#fff"/>
    <path id="Path_142" data-name="Path 142" d="M163.967,195.276a1.319,1.319,0,1,1-1.319-1.319A1.32,1.32,0,0,1,163.967,195.276Zm0,0" transform="translate(-140.216 -168.576)" fill="#fff"/>
    <path id="Path_143" data-name="Path 143" d="M321.588,75.8a1.319,1.319,0,1,1-1.319-1.319A1.32,1.32,0,0,1,321.588,75.8Zm0,0" transform="translate(-277.211 -64.737)" fill="#fff"/>
  </g>
</svg>
