<svg xmlns="http://www.w3.org/2000/svg" width="65.971" height="60.131" viewBox="0 0 65.971 60.131">
  <path id="community" d="M48.393,43.007a1.857,1.857,0,0,0,0-3.713A1.857,1.857,0,0,0,48.393,43.007Zm0-2.29a.433.433,0,0,1,0,.867A.433.433,0,0,1,48.393,40.717Zm9.25,2.29a1.857,1.857,0,0,0,0-3.713A1.857,1.857,0,0,0,57.643,43.007Zm0-2.29a.433.433,0,0,1,0,.867A.433.433,0,0,1,57.643,40.717Zm-4.619,2.29a1.857,1.857,0,0,0,0-3.713A1.857,1.857,0,0,0,53.024,43.007Zm0-2.29a.433.433,0,0,1,0,.867A.433.433,0,0,1,53.024,40.717ZM8.52,39.152a2.141,2.141,0,0,0,0-4.282A2.141,2.141,0,0,0,8.52,39.152Zm0-2.859a.718.718,0,0,1,0,1.436A.718.718,0,0,1,8.52,36.293ZM57.268,66.307a.742.742,0,0,0-.582.168,5.571,5.571,0,0,1-7.335,0c-.686-.453-1.617.116-2.342.259a13.717,13.717,0,0,0-7.62-3.881.742.742,0,0,0-.582.168,6.921,6.921,0,0,1-9.134,0,.715.715,0,0,0-.582-.168,13.717,13.717,0,0,0-7.62,3.881c-.712-.129-1.669-.712-2.342-.259a5.571,5.571,0,0,1-7.335,0,.685.685,0,0,0-.582-.168A11.49,11.49,0,0,0,1.521,77.6v1.979a4.171,4.171,0,0,0,4.166,4.166H62.779a4.163,4.163,0,0,0,4.166-4.166V77.6a11.336,11.336,0,0,0-9.677-11.294ZM5.7,82.324a2.744,2.744,0,0,1-2.743-2.743V77.6a10.061,10.061,0,0,1,8.163-9.832,7.016,7.016,0,0,0,8.694,0c.207.039.414.091.621.129a13.867,13.867,0,0,0-2.963,8.526c.026.5-.052,2.626.052,3.092a4.851,4.851,0,0,0,1.4,2.807Zm40.429,0H22.376a3.481,3.481,0,0,1-3.48-3.48,26.033,26.033,0,0,1,.22-4.722,12.374,12.374,0,0,1,9.9-9.794,8.386,8.386,0,0,0,10.492,0A12.375,12.375,0,0,1,49.622,76.437v2.406a3.509,3.509,0,0,1-3.493,3.48Zm19.406-2.743a2.744,2.744,0,0,1-2.743,2.743H49.57a4.851,4.851,0,0,0,1.4-2.807c.1-.453.039-2.587.052-3.092A13.947,13.947,0,0,0,48.056,67.9c.207-.052.4-.091.608-.129a7.016,7.016,0,0,0,8.694,0A9.945,9.945,0,0,1,65.522,77.6v1.979ZM14.29,50.382H26.943a.7.7,0,0,0,.634-.388.721.721,0,0,0-.052-.737l-2.782-3.92C33.075,34.663,22.35,19.875,9.606,24.481-4.237,29.876-.523,50.123,14.29,50.382ZM9.891,25.9c11.566-4.528,21.541,9.509,13.429,18.94a.7.7,0,0,0-.039.88l2.3,3.247H14.3C1.21,48.751-2.283,30.911,9.891,25.9ZM20.06,39.152a2.141,2.141,0,0,0,0-4.282A2.141,2.141,0,0,0,20.06,39.152Zm0-2.859a.718.718,0,0,1,0,1.436A.718.718,0,0,1,20.06,36.293Zm-5.77,2.859a2.141,2.141,0,0,0,0-4.282A2.141,2.141,0,0,0,14.29,39.152Zm0-2.859a.718.718,0,0,1,0,1.436A.718.718,0,0,1,14.29,36.293Zm32.68,24.27a6.049,6.049,0,1,0,6.055-6.055,6.07,6.07,0,0,0-6.055,6.055Zm10.686,0c-.194,6.119-9.056,6.119-9.263,0A4.632,4.632,0,0,1,57.656,60.563ZM42.3,50.886a.719.719,0,0,0,.582,1.126H53.024a10.861,10.861,0,0,0,0-21.722c-8.966-.078-14.115,10.531-8.552,17.543Zm1.294-9.729A9.46,9.46,0,0,1,56.517,32.4c9.587,3.946,6.844,18.035-3.493,18.2H44.253l1.682-2.38a.719.719,0,0,0-.039-.88A9.436,9.436,0,0,1,43.593,41.157Zm-14.1,19.975a7.2,7.2,0,1,0,4.748-12.614A7.227,7.227,0,0,0,29.491,61.132Zm4.748-11.191a5.789,5.789,0,0,1,5.783,5.783c-.272,7.646-11.281,7.646-11.553,0a5.778,5.778,0,0,1,5.77-5.783ZM9.412,60.563a6.049,6.049,0,1,0,6.055-6.055A6.07,6.07,0,0,0,9.412,60.563Zm10.686,0c-.194,6.119-9.056,6.119-9.263,0A4.632,4.632,0,0,1,20.1,60.563Z" transform="translate(-0.974 -23.616)" fill="#fff"/>
</svg>
