<svg xmlns="http://www.w3.org/2000/svg" width="58.151" height="67" viewBox="0 0 58.151 67">
  <g id="cyber-security" transform="translate(-215.087 -92)">
    <g id="Group_3" data-name="Group 3" transform="translate(215.087 92)">
      <path id="Path_130" data-name="Path 130" d="M244.559,159h-.792a6.152,6.152,0,0,1-2.163-.391,38.363,38.363,0,0,1-18.232-13.757,44.4,44.4,0,0,1-7.226-17.5,62.279,62.279,0,0,1-.33-20.994,6.153,6.153,0,0,1,3.69-4.571l22.278-9.307a6.172,6.172,0,0,1,4.759,0l22.278,9.307a6.153,6.153,0,0,1,3.69,4.571,62.287,62.287,0,0,1-.33,20.994,44.4,44.4,0,0,1-7.226,17.5,38.362,38.362,0,0,1-18.232,13.757A6.151,6.151,0,0,1,244.559,159Zm-.4-64.7a3.853,3.853,0,0,0-1.493.3l-22.278,9.307a3.86,3.86,0,0,0-2.315,2.868,59.71,59.71,0,0,0,.327,20.139,42.122,42.122,0,0,0,6.842,16.6,36.1,36.1,0,0,0,17.164,12.937,3.86,3.86,0,0,0,1.357.245h.792a3.86,3.86,0,0,0,1.357-.246,36.1,36.1,0,0,0,17.163-12.937,42.122,42.122,0,0,0,6.842-16.6,59.719,59.719,0,0,0,.327-20.139,3.86,3.86,0,0,0-2.315-2.868L245.655,94.6A3.853,3.853,0,0,0,244.163,94.3Z" transform="translate(-215.087 -92)" fill="#fff"/>
    </g>
    <g id="Group_4" data-name="Group 4" transform="translate(220.107 97.022)">
      <path id="Path_131" data-name="Path 131" d="M379.213,288.679h-.792a1.149,1.149,0,0,1-.4-.073,33.43,33.43,0,0,1-15.9-11.965,39.427,39.427,0,0,1-6.387-15.541,57.829,57.829,0,0,1-.9-13.377,46.545,46.545,0,0,1,.581-5.751,1.15,1.15,0,0,1,.688-.852l22.278-9.307a1.15,1.15,0,0,1,.887,0l22.278,9.307a1.15,1.15,0,0,1,.688.852,46.522,46.522,0,0,1,.581,5.751,57.829,57.829,0,0,1-.9,13.377,39.426,39.426,0,0,1-6.387,15.541,33.429,33.429,0,0,1-15.9,11.965A1.148,1.148,0,0,1,379.213,288.679Zm-.582-2.3H379c11.23-4.27,18.173-12.92,20.64-25.714A55.936,55.936,0,0,0,400.06,243l-21.243-8.875L357.574,243c-.127.864-.347,2.6-.452,4.9A55.431,55.431,0,0,0,358,260.732C360.483,273.489,367.422,282.117,378.631,286.379Z" transform="translate(-354.762 -231.724)" fill="#fff"/>
    </g>
    <g id="Group_5" data-name="Group 5" transform="translate(233.219 119.928)">
      <path id="Path_132" data-name="Path 132" d="M736.027,888.79H724.94a5.406,5.406,0,0,1-5.4-5.4v-9.01a5.406,5.406,0,0,1,5.4-5.4h11.087a5.406,5.406,0,0,1,5.4,5.4v9.01A5.406,5.406,0,0,1,736.027,888.79ZM724.94,871.28a3.1,3.1,0,0,0-3.1,3.1v9.01a3.1,3.1,0,0,0,3.1,3.1h11.087a3.1,3.1,0,0,0,3.1-3.1v-9.01a3.1,3.1,0,0,0-3.1-3.1Zm5.544,8.979a3.187,3.187,0,1,1,3.187-3.187A3.19,3.19,0,0,1,730.484,880.26Zm0-4.074a.887.887,0,1,0,.886.887A.887.887,0,0,0,730.484,876.186Z" transform="translate(-719.54 -868.98)" fill="#fff"/>
    </g>
    <g id="Group_6" data-name="Group 6" transform="translate(235.85 109.242)">
      <path id="Path_133" data-name="Path 133" d="M808.206,584.681a1.15,1.15,0,0,1-1.15-1.15v-3.523a6.013,6.013,0,1,0-12.025,0v3.523a1.15,1.15,0,1,1-2.3,0v-3.523a8.313,8.313,0,0,1,16.626,0v3.523A1.15,1.15,0,0,1,808.206,584.681Z" transform="translate(-792.73 -571.695)" fill="#fff"/>
    </g>
    <g id="Group_7" data-name="Group 7" transform="translate(243.012 128.907)">
      <path id="Path_134" data-name="Path 134" d="M993.15,1124.523a1.15,1.15,0,0,1-1.15-1.15v-3.433a1.15,1.15,0,1,1,2.3,0v3.433A1.15,1.15,0,0,1,993.15,1124.523Z" transform="translate(-992 -1118.79)" fill="#fff"/>
    </g>
  </g>
</svg>
