<svg xmlns="http://www.w3.org/2000/svg" xmlns:xlink="http://www.w3.org/1999/xlink" width="75.181" height="75.182" viewBox="0 0 75.181 75.182">
  <defs>
    <clipPath id="clip-path">
      <path id="path5097" d="M0-682.665H75.181v75.182H0Z" transform="translate(0 682.665)" fill="#fff"/>
    </clipPath>
  </defs>
  <g id="g5091" transform="translate(0 682.665)">
    <g id="g5093" transform="translate(0 -682.665)">
      <g id="g5095" clip-path="url(#clip-path)">
        <g id="g5101" transform="translate(15.309 17.029)">
          <path id="path5103" d="M-17.927-8.963a1.109,1.109,0,0,1-1.109,1.109,1.109,1.109,0,0,1-1.109-1.109,1.109,1.109,0,0,1,1.109-1.109,1.109,1.109,0,0,1,1.109,1.109" transform="translate(20.145 10.072)" fill="#fff"/>
        </g>
        <g id="g5105" transform="translate(32.22 63.599)">
          <path id="path5107" d="M-146.8-51.349h-16.955a1.212,1.212,0,0,1-1.212-1.212v-3.931a1.212,1.212,0,0,1,1.212-1.212H-146.8a1.212,1.212,0,0,1,1.212,1.212v3.931A1.212,1.212,0,0,1-146.8-51.349Z" transform="translate(164.964 57.704)" fill="none" stroke="#fff" stroke-linecap="round" stroke-linejoin="round" stroke-width="2"/>
        </g>
        <g id="g5109" transform="translate(37.718 47.741)">
          <path id="path5111" d="M-37.968,0c0,1.787-4.7,1.787-4.7,3.575s4.7,1.787,4.7,3.575-4.7,1.787-4.7,3.575,4.7,2.669,4.7,4.456" transform="translate(42.667)" fill="none" stroke="#fff" stroke-linecap="round" stroke-linejoin="round" stroke-width="2"/>
        </g>
        <g id="g5113" transform="translate(28.568 38.878)">
          <path id="path5115" d="M-222.276,0h-27.509" transform="translate(249.785)" fill="none" stroke="#fff" stroke-linecap="round" stroke-linejoin="round" stroke-width="2"/>
        </g>
        <g id="g5117" transform="translate(49.218 31.99)">
          <path id="path5119" d="M0,0H4.754" fill="none" stroke="#fff" stroke-linecap="round" stroke-linejoin="round" stroke-width="2"/>
        </g>
        <g id="g5121" transform="translate(31.439 31.99)">
          <path id="path5123" d="M0,0H13.374" fill="none" stroke="#fff" stroke-linecap="round" stroke-linejoin="round" stroke-width="2"/>
        </g>
        <g id="g5125" transform="translate(32.336 39.724)">
          <path id="path5127" d="M-144.175,0a6.474,6.474,0,0,1-6.474,6.474h-4.9A6.474,6.474,0,0,1-162.018,0" transform="translate(162.018)" fill="none" stroke="#fff" stroke-linecap="round" stroke-linejoin="round" stroke-width="2"/>
        </g>
        <g id="g5129" transform="translate(1.101 21.07)">
          <path id="path5131" d="M-38.015,0l-3.77,4.175a3.624,3.624,0,0,0-.25,4.548l1.411,1.957a2.581,2.581,0,0,0,3.5.653l11.027-7.194a1.187,1.187,0,0,1,1.7.434l1.488,2.779a1.187,1.187,0,0,1,.012,1.1L-30.384,23.2a7.42,7.42,0,0,0,2.5,9.53l2.684,1.792a1.577,1.577,0,0,0,2.318-.675l1.215-2.753" transform="translate(42.72)" fill="none" stroke="#fff" stroke-linecap="round" stroke-linejoin="round" stroke-width="2"/>
        </g>
        <g id="g5133" transform="translate(8.817 5.227)">
          <path id="path5135" d="M-132.247-323.713l4.55-10.315a20.04,20.04,0,0,0-2.055-19.774l-5.5-7.664a5.538,5.538,0,0,0-4.5-2.309h-.207a2.074,2.074,0,0,0-2.075,2.075v2.354a2.074,2.074,0,0,1-.615,1.475l-5.964,6.605" transform="translate(148.614 363.775)" fill="none" stroke="#fff" stroke-linecap="round" stroke-linejoin="round" stroke-width="2"/>
        </g>
        <g id="g5137" transform="translate(53.464 15.92)">
          <path id="path5139" d="M-41.055-235.07l-4.575-14.465A10.783,10.783,0,0,1-37.76-263.3l3.083-.707a6.25,6.25,0,0,1,4.811.857l1.51.985a6.25,6.25,0,0,1,2.737,6.339l-.145.809a1.4,1.4,0,0,1-1.458,1.151l-4.979-.282a3.756,3.756,0,0,0-3.282,1.585,3.756,3.756,0,0,0-.443,3.495l5.475,14.457A7.258,7.258,0,0,1-33.208-226l-2.13,1.422a1.789,1.789,0,0,1-2.7-.948l-.864-2.732" transform="translate(46.136 264.162)" fill="none" stroke="#fff" stroke-linecap="round" stroke-linejoin="round" stroke-width="2"/>
        </g>
        <g id="g5141" transform="translate(55.803 45.65)">
          <path id="path5143" d="M-49.871-24.935a3.086,3.086,0,0,1-3.086,3.086,3.086,3.086,0,0,1-3.086-3.086,3.086,3.086,0,0,1,3.086-3.086A3.086,3.086,0,0,1-49.871-24.935Z" transform="translate(56.043 28.021)" fill="none" stroke="#fff" stroke-linecap="round" stroke-linejoin="round" stroke-width="2"/>
        </g>
        <g id="g5145" transform="translate(20.49 45.65)">
          <path id="path5147" d="M-49.869-24.935a3.086,3.086,0,0,1-3.086,3.086,3.086,3.086,0,0,1-3.086-3.086,3.086,3.086,0,0,1,3.086-3.086A3.086,3.086,0,0,1-49.869-24.935Z" transform="translate(56.041 28.021)" fill="none" stroke="#fff" stroke-linecap="round" stroke-linejoin="round" stroke-width="2"/>
        </g>
      </g>
    </g>
  </g>
</svg>
