<svg xmlns="http://www.w3.org/2000/svg" width="70.5" height="65.58" viewBox="0 0 70.5 65.58">
  <path id="gazebo" d="M73.858,28.2,47.151,13.195v-.946a6.3,6.3,0,0,0-6.295-6.295H37.644a6.3,6.3,0,0,0-6.295,6.295v.946L4.642,28.2a1.259,1.259,0,0,0,.617,2.357H9.122V63.894H8.8a4.043,4.043,0,0,0-4.038,4.039v2.342A1.259,1.259,0,0,0,6.02,71.534H72.48a1.259,1.259,0,0,0,1.259-1.259V67.933A4.043,4.043,0,0,0,69.7,63.894h-.323V30.557h3.863a1.259,1.259,0,0,0,.617-2.357Zm-18.645-.161L44.666,15.191h.9L68.43,28.039ZM50.132,63.894V52.745h7.536v11.15Zm-2.518,0h-7.1V52.745h7.1Zm-16.728,0V52.745h7.1v11.15Zm-10.054,0V52.745h7.536v11.15ZM30.886,50.227V30.557H47.614v19.67Zm-4.34-22.187L37.092,15.191h4.315L51.954,28.039H26.546Zm7.321-15.791a3.781,3.781,0,0,1,3.777-3.777h3.212a3.781,3.781,0,0,1,3.777,3.777v.424H33.867Zm-.929,2.942h.9L23.288,28.039H10.07L32.938,15.191ZM28.368,30.557V50.227H11.64V30.557H28.368ZM11.64,52.745h6.674v11.15H11.64ZM71.221,67.933v1.083H7.279V67.933A1.522,1.522,0,0,1,8.8,66.412H69.7a1.522,1.522,0,0,1,1.52,1.521ZM60.186,63.894V52.745H66.86v11.15ZM66.86,50.227H50.132V30.557H66.86Z" transform="translate(-4 -5.954)" fill="#fff"/>
</svg>
