<svg xmlns="http://www.w3.org/2000/svg" width="64.729" height="67.141" viewBox="0 0 64.729 67.141">
  <g id="muscle" transform="translate(0 0)">
    <path id="Path_123" data-name="Path 123" d="M335.726,51.59a1.116,1.116,0,0,0,1.578,0l7.775-7.775A5.714,5.714,0,1,0,337,35.734l-.484.483-.483-.483a5.714,5.714,0,1,0-8.081,8.08Zm-6.2-14.277a3.487,3.487,0,0,1,4.924,0l1.272,1.272a1.116,1.116,0,0,0,1.578,0l1.272-1.272a3.482,3.482,0,0,1,4.924,4.924l-6.986,6.986-6.985-6.986a3.481,3.481,0,0,1,0-4.924Zm0,0" transform="translate(-283.491 -29.597)" fill="#fff"/>
    <path id="Path_124" data-name="Path 124" d="M63.489,64.735a31.324,31.324,0,0,1-17.181-3.208,1.112,1.112,0,0,0-.846-.108c-.12.032-12.12,3.249-21.784,1.1-6.025-1.34-11.708-5.584-15.858-8.682-.557-.416-1.085-.811-1.581-1.173a12.677,12.677,0,0,0-2.7-1.271c-.426-.163-1.01-.387-1.136-.465a.437.437,0,0,1-.168-.353V47.992c.054-2.047,8.636-33.544,9.967-37.55a.863.863,0,0,1,.255-.184L29.438,2.5l5.491,7.148a.984.984,0,0,1-.06,1.23L29.443,16.96a.967.967,0,0,1-1.324.132l-2.194-2.023a1.124,1.124,0,0,0-.966-.252,1.171,1.171,0,0,0-.81.618c-.183.361-1.845.8-3.539.817l-.552-.056a1.1,1.1,0,0,0-1.088.568,1.116,1.116,0,0,0,.092,1.225c.471.609.839,1.1,1.047,1.379l1.086,18.46c-.673,2.622-1.29,3.366-1.443,3.516a1.116,1.116,0,0,0,.336,2.181c1.266,0,2.341-1.663,3.205-4.91a13.655,13.655,0,0,1,17.231.142c2.819,2.83,2.994,4.709,3,4.793a1.116,1.116,0,0,0,2.232-.025c0-.257-.093-2.459-2.982-5.64,2.724-3.349,5.826-5.278,9.242-5.7,5.89-.725,10.841,3.235,10.89,3.275a1.116,1.116,0,0,0,1.412-1.728c-.231-.188-5.711-4.6-12.553-3.765-4,.485-7.589,2.648-10.683,6.433-2.512-1.708-9.713-5.573-17.766-.518l-1-16.976a1.109,1.109,0,0,0-.162-.517,7.334,7.334,0,0,0,3.051-.947l1.438,1.325a3.2,3.2,0,0,0,4.464-.321l5.426-6.083a3.235,3.235,0,0,0,.181-4.053L30.666.436A1.116,1.116,0,0,0,29.317.1L11.54,8.221A2.714,2.714,0,0,0,10.1,9.691C9.469,11.588,0,45.357,0,47.988v2.591a2.664,2.664,0,0,0,1.023,2.11,7.089,7.089,0,0,0,1.714.792,12.1,12.1,0,0,1,2.183.988c.491.359,1.012.748,1.563,1.16C10.8,58.849,16.7,63.259,23.194,64.7c9.244,2.054,20.094-.429,22.42-1.015a33.446,33.446,0,0,0,14.711,3.455,30.712,30.712,0,0,0,3.41-.188,1.116,1.116,0,1,0-.246-2.218Zm0,0" transform="translate(0 0)" fill="#fff"/>
    <path id="Path_125" data-name="Path 125" d="M427.737,383.957a1.116,1.116,0,0,0-2.226.123c0,.745.551,3.269,7.629,4.448a1.136,1.136,0,0,0,.184.015,1.116,1.116,0,0,0,.182-2.217C428.557,385.5,427.8,384.106,427.737,383.957Zm0,0" transform="translate(-369.712 -332.745)" fill="#fff"/>
    <path id="Path_126" data-name="Path 126" d="M125.324,382.293c-14.617,3.131-20.872-6.87-21.131-7.3a1.116,1.116,0,0,0-1.913,1.151,19.152,19.152,0,0,0,5.647,5.521,21.648,21.648,0,0,0,12,3.453,27.945,27.945,0,0,0,5.861-.645,1.116,1.116,0,1,0-.467-2.183Zm0,0" transform="translate(-88.73 -325.352)" fill="#fff"/>
  </g>
</svg>
