<svg xmlns="http://www.w3.org/2000/svg" width="84.736" height="67" viewBox="0 0 84.736 67">
  <g id="swimming-pool" transform="translate(0.001 -53.583)">
    <path id="Path_127" data-name="Path 127" d="M84.188,98.842a1.246,1.246,0,0,0-1.726.329,8.805,8.805,0,0,1-14.391,0,1.252,1.252,0,0,0-2.065,0,9.228,9.228,0,0,1-7.187,3.727,9.131,9.131,0,0,1-6.976-3.44V80.192H83.491a1.244,1.244,0,1,0,0-2.487h-10V68.64A15.017,15.017,0,0,0,58.753,53.584,14.928,14.928,0,0,0,44.94,62.57a14.929,14.929,0,0,0-13.465-8.986h-.148A14.9,14.9,0,0,0,16.446,68.466V77.7H1.337a1.244,1.244,0,1,0,0,2.487H16.446V85.1a1.244,1.244,0,0,0,2.487,0V68.466A12.41,12.41,0,0,1,31.451,56.071,12.522,12.522,0,0,1,43.724,68.64V77.7H40.58V68.466a9.294,9.294,0,0,0-9.091-9.25h-.158a9.107,9.107,0,0,0-6.42,2.654,9.513,9.513,0,0,0-2.835,6.74v33.38a9.722,9.722,0,0,1-3.144-2.538V90.078a1.244,1.244,0,1,0-2.487,0v9.384A9.13,9.13,0,0,1,9.469,102.9a9.178,9.178,0,0,1-7.194-3.728A1.244,1.244,0,0,0,.21,100.563a11.71,11.71,0,0,0,9.258,4.827,11.463,11.463,0,0,0,8.226-3.6,11.2,11.2,0,0,0,16.447,0,11.206,11.206,0,0,0,16.451,0,11.2,11.2,0,0,0,16.447,0,11.463,11.463,0,0,0,8.225,3.6,11.71,11.71,0,0,0,9.258-4.827,1.241,1.241,0,0,0-.335-1.721ZM24.564,88.835h19.16v3.482H24.564Zm19.16-2.487H24.564V80.192h19.16Zm-17.068-22.7A6.636,6.636,0,0,1,31.447,61.7a6.8,6.8,0,0,1,6.646,6.763V77.7H24.565v-9.1A7.009,7.009,0,0,1,26.656,63.643Zm8.517,35.533a1.255,1.255,0,0,0-2.062,0,9.16,9.16,0,0,1-7.19,3.731,8.555,8.555,0,0,1-1.356-.109V94.8h19.16v7.99a8.562,8.562,0,0,1-1.357.109,9.178,9.178,0,0,1-7.194-3.728Zm11.039,2.812V68.466A12.41,12.41,0,0,1,58.729,56.071,12.522,12.522,0,0,1,71,68.64V77.7H67.858V74.94a1.244,1.244,0,0,0-2.487,0V77.7H51.842v-9.1a7.011,7.011,0,0,1,2.091-4.966A6.63,6.63,0,0,1,58.725,61.7a6.8,6.8,0,0,1,6.646,6.763v1.5a1.244,1.244,0,0,0,2.487,0v-1.5a9.294,9.294,0,0,0-9.091-9.25h-.158a9.107,9.107,0,0,0-6.42,2.654,9.513,9.513,0,0,0-2.835,6.74v30.84A9.714,9.714,0,0,1,46.211,101.988Z" transform="translate(0)" fill="#fff"/>
    <path id="Path_128" data-name="Path 128" d="M75.626,421.818a9.178,9.178,0,0,1-7.194-3.728,1.255,1.255,0,0,0-2.061,0,8.805,8.805,0,0,1-14.391,0,1.244,1.244,0,0,0-2.064,1.388,11.71,11.71,0,0,0,9.258,4.827,11.464,11.464,0,0,0,8.226-3.6,11.464,11.464,0,0,0,8.226,3.6,1.244,1.244,0,0,0,0-2.487Z" transform="translate(-41.479 -303.722)" fill="#fff"/>
    <path id="Path_129" data-name="Path 129" d="M266.842,417.769a1.246,1.246,0,0,0-1.726.331,8.8,8.8,0,0,1-14.384,0,1.252,1.252,0,0,0-2.064,0,8.806,8.806,0,0,1-14.388,0,1.255,1.255,0,0,0-2.062,0,9.681,9.681,0,0,1-2.865,2.547,1.244,1.244,0,0,0,1.254,2.148,12.5,12.5,0,0,0,2.64-2.074,11.206,11.206,0,0,0,16.453,0,11.464,11.464,0,0,0,8.226,3.6,11.692,11.692,0,0,0,9.253-4.828A1.241,1.241,0,0,0,266.842,417.769Z" transform="translate(-190.881 -303.735)" fill="#fff"/>
  </g>
</svg>
