<svg xmlns="http://www.w3.org/2000/svg" width="63.072" height="67" viewBox="0 0 63.072 67">
  <path id="yoga-pose" d="M71.222,42.64a5.134,5.134,0,0,0,.44-2.395l-.087-1.477a4.529,4.529,0,0,0-2-3.485,5.142,5.142,0,0,0-3.9-.746l-.38.084a44.88,44.88,0,0,0-13.6,5.558l-1.592.978-.379-7.735a8.607,8.607,0,0,0-1.237-3.97L46.42,26.061a7.481,7.481,0,0,1-.89-2.163,8.623,8.623,0,0,0-5.736-6.185L34.5,16.026a6.445,6.445,0,0,0-2.653-.261C29.1,13.091,26,10.178,25.443,9.758,25.366,9.7,17.676,4,16.241,4H13.8a2.164,2.164,0,0,0-2.066,1.549,31.785,31.785,0,0,0-1.416,7.331c0,2.687-.226,8.8-.263,9.8l-.921,1.535a3.776,3.776,0,0,0-.481,2.6l.4,2.274a3.793,3.793,0,0,0,1.21,2.166l.482.429a1.943,1.943,0,0,0,1.3.5c.05,0,.1,0,.15-.006a1.98,1.98,0,0,0,.275-.042V61.692a11.535,11.535,0,0,0,1.211,5.131A4.127,4.127,0,0,0,17.4,69.116h.3a11.463,11.463,0,0,0,3.652-.6c.441-.171,10.83-4.206,13.1-5.6l9.738-5.962L50.4,54.749a20.137,20.137,0,0,0,8.313-5.615L60,47.679A90.484,90.484,0,0,0,57.748,60.9L54.8,67.289A2.615,2.615,0,0,0,57.173,71H70.132a1.327,1.327,0,0,0,.462-2.571c-3.648-1.346-7.8-3.644-7.482-5.689.356-2.312,4.423-11.9,8.11-20.1ZM38.692,39.25c-.015-.149-.033-.3-.059-.447l-.165-.949c-.073-.419-.167-.832-.277-1.239,1.259-.334,4.359-1.159,5.315-1.447a50.808,50.808,0,0,0,5.059-2.415c.038.24.067.482.081.725L48.9,38.73l-1.8-.573a9.439,9.439,0,0,0-6.735.383ZM13.558,31.469a1.962,1.962,0,0,0,.435-1.533L13.8,28.591l.057.066a1.18,1.18,0,0,0,1.04.394,1.192,1.192,0,0,0,.143-.027l.455,1.744a9.876,9.876,0,0,0,1.8,3.623l1.488,1.9c.01.013.02.025.031.037a1.071,1.071,0,0,1-.023,1.5L17.4,39.216a1.09,1.09,0,0,0-.3.939L19.391,52.2q.026.179.044.359a7.481,7.481,0,0,1,.006,1.185l-.228,3.71L13.55,60.029V31.478Zm6.948,20.99c-.013-.137-.03-.274-.054-.434L18.157,39.977l1.392-1.392a2.142,2.142,0,0,0,.063-2.978l-1.474-1.879a8.8,8.8,0,0,1-1.6-3.231l-.629-2.413a1.177,1.177,0,0,0-.017-.51l-.1-.38a8.105,8.105,0,0,0,2.2,1.234,4.06,4.06,0,0,0,7.746,2.333,4.327,4.327,0,0,0-.094-3.679,6.666,6.666,0,0,0,1.3-1.242l.021-.028a6.4,6.4,0,0,0,2.067,2.171l3.738,2.4a6.985,6.985,0,0,1,1.16.935,12.472,12.472,0,0,1,3.487,6.718l.165.949a4.959,4.959,0,0,1-.464,3.113,14.74,14.74,0,0,0-4.028,2.956A9.567,9.567,0,0,0,30.718,49.3a8.618,8.618,0,0,1-3.539,4.857l-6.969,4.6.3-4.945a8.556,8.556,0,0,0-.009-1.356Zm5.67-31.111-.054.434c0,.026,0,.051-.007.077a21.544,21.544,0,0,1-11.162-4.373c1.05-1.532,2.393-3.284,2.408-3.3a.538.538,0,0,0,.053-.083l.548-1.076,8.381,7.5a6.445,6.445,0,0,0-.167.826Zm-9.7-7.782c-.137.179-.686.9-1.323,1.775a7.683,7.683,0,0,1,.492-1.414A16.4,16.4,0,0,1,16.8,11.984l.332.3Zm-1.94,4.961a22.207,22.207,0,0,0,11.551,4.407,6.436,6.436,0,0,0,.357,1.77c-.12.163-.24.321-.358.471a7.63,7.63,0,0,1-7.484,2.33,7.5,7.5,0,0,1-3.344-2.3l-.382-1.433a.531.531,0,0,0-.039-.1L14.1,22.193C14.142,21.72,14.29,20.188,14.537,18.527Zm10.2,11.829a2.98,2.98,0,0,1-5.706-1.646,7.225,7.225,0,0,0,1.275.114,9.361,9.361,0,0,0,4.421-1.163,3.273,3.273,0,0,1,.01,2.695ZM34.177,17.05l5.29,1.688a7.541,7.541,0,0,1,5.016,5.409A8.559,8.559,0,0,0,45.5,26.62l2.063,3.389a7.525,7.525,0,0,1,.75,1.659,54.737,54.737,0,0,1-5.119,2.469c-.939.283-4.106,1.126-5.326,1.45a13.539,13.539,0,0,0-3.187-5.027,8.075,8.075,0,0,0-1.339-1.08l-3.738-2.4a5.374,5.374,0,0,1-2.415-5.162l.054-.434c0-.027.01-.054.014-.081L30.27,24.59a3.564,3.564,0,0,0,3.38,1.022l.308-.071a3.55,3.55,0,0,0,1.787-5.893c-.62-.658-1.646-1.685-2.818-2.834a5.326,5.326,0,0,1,1.249.237ZM12.118,31.1a.876.876,0,0,1-.654-.221l-.482-.429a2.709,2.709,0,0,1-.865-1.548l-.4-2.274a2.7,2.7,0,0,1,.343-1.858l.992-1.654a.539.539,0,0,0,.076-.256c0-.07.27-7.04.27-9.977A30.848,30.848,0,0,1,12.77,5.851,1.082,1.082,0,0,1,13.8,5.076h2.427c.879.087,6.473,3.973,8.566,5.543.753.565,7.914,7.378,10.165,9.766a2.474,2.474,0,0,1-1.246,4.107l-.308.071a2.483,2.483,0,0,1-2.355-.712l-3.389-3.589-.033-.031L17.44,11.112c.37-.475.625-.752.631-.759l-.789-.732a18.048,18.048,0,0,0-2.6,3.825c-1.11,2.22-1.647,8.538-1.669,8.807a.541.541,0,0,0,.055.285l.783,1.565,1,3.747a.1.1,0,0,1-.008.075.1.1,0,0,1-.081.058.1.1,0,0,1-.093-.036l-1.252-1.43a.538.538,0,0,0-.938.431l.449,3.141a.884.884,0,0,1-.81,1.007ZM57.908,48.421a19.053,19.053,0,0,1-7.868,5.314l-6.266,2.228a.542.542,0,0,0-.1.048L33.888,62c-2.192,1.342-12.823,5.472-12.906,5.5a10.373,10.373,0,0,1-3.288.534h-.3a3.056,3.056,0,0,1-2.749-1.7,10.45,10.45,0,0,1-1.1-4.65v-.48l5.587-2.537-.051.826L17.02,60.864l.593.9,10.158-6.7A9.7,9.7,0,0,0,31.754,49.6a8.511,8.511,0,0,1,2.088-3.777,16.3,16.3,0,0,1,1.847-1.6l-.647.917c-.07.1-.142.215-.215.343a6.1,6.1,0,0,0-.39,5.014l.131.371,1.015-.358-.131-.371a5.019,5.019,0,0,1,.313-4.128,2.915,2.915,0,0,1,.156-.25l1.685-2.387A6.1,6.1,0,0,0,38.7,40.417l2.1-.892a8.361,8.361,0,0,1,5.977-.343l2.185.7.094,1.921-4.3,2.643.563.917,6.941-4.263A43.809,43.809,0,0,1,65.531,35.67l.367-.081a4.064,4.064,0,0,1,3.08.589A3.448,3.448,0,0,1,70.5,38.831l.087,1.477a4.05,4.05,0,0,1-.347,1.89c-.229.509-.524,1.168-.866,1.936l-7.508,1.508a4,4,0,0,1,.576-.921c2.377-2.641,3.2-3.47,3.21-3.478l-.761-.761c-.033.033-.845.848-3.249,3.518a4.306,4.306,0,0,0-.564.837ZM70.221,69.439a.251.251,0,0,1-.089.485H57.173a1.538,1.538,0,0,1-1.4-2.183l2.987-6.471a.543.543,0,0,0,.047-.174c.3-3.082,1.238-10.4,2.574-14.259l7.456-1.5c-2.447,5.54-6.413,14.768-6.792,17.237-.5,3.284,5.548,5.893,8.174,6.862Z" transform="translate(-8.598 -4)" fill="#fff"/>
</svg>
